<svg width="636" height="315" viewBox="0 0 636 315" fill="none" xmlns="http://www.w3.org/2000/svg">
<mask id="path-1-inside-1_92_9240" fill="white">
<path fill-rule="evenodd" clip-rule="evenodd" d="M253.726 14.4814C249.603 6.33997 241.89 0 232.764 0H20C8.95431 0 0 8.9543 0 20V295C0 306.046 8.95429 315 20 315H616C627.046 315 636 306.046 636 295V20C636 8.95431 627.046 0 616 0H403.236C394.11 0 386.397 6.33998 382.274 14.4814C370.402 37.9278 346.078 54 318 54C289.922 54 265.598 37.9278 253.726 14.4814Z"/>
</mask>
<path d="M253.726 14.4814L252.834 14.9332L253.726 14.4814ZM20 1H232.764V-1H20V1ZM1 20C1 9.50659 9.50659 1 20 1V-1C8.40202 -1 -1 8.40202 -1 20H1ZM1 295V20H-1V295H1ZM20 314C9.50658 314 1 305.493 1 295H-1C-1 306.598 8.402 316 20 316V314ZM616 314H20V316H616V314ZM635 295C635 305.493 626.493 314 616 314V316C627.598 316 637 306.598 637 295H635ZM635 20V295H637V20H635ZM616 1C626.493 1 635 9.50659 635 20H637C637 8.40202 627.598 -1 616 -1V1ZM403.236 1H616V-1H403.236V1ZM381.382 14.0297C369.674 37.1529 345.687 53 318 53V55C346.469 55 371.131 38.7027 383.167 14.9332L381.382 14.0297ZM318 53C290.313 53 266.326 37.1529 254.618 14.0297L252.834 14.9332C264.869 38.7027 289.531 55 318 55V53ZM403.236 -1C393.62 -1 385.617 5.66608 381.382 14.0297L383.167 14.9332C387.176 7.01388 394.6 1 403.236 1V-1ZM232.764 1C241.4 1 248.824 7.01387 252.834 14.9332L254.618 14.0297C250.383 5.66607 242.38 -1 232.764 -1V1Z" fill="#011C1A" mask="url(#path-1-inside-1_92_9240)"/>
</svg>
